<svg width="64" height="64" viewBox="0 0 64 64" fill="none" xmlns="http://www.w3.org/2000/svg">
  <rect width="64" height="64" rx="18" fill="url(#bg)"/>
  <path d="M32 7C21.5 7 13 15.1 13 25.2C13 40.3 32 59 32 59C32 59 51 40.3 51 25.2C51 15.1 42.5 7 32 7Z" fill="white" fill-opacity="0.95"/>
  <path d="M32 16.4C25.9 16.4 21 21.1 21 27C21 32.9 25.9 37.6 32 37.6C38.1 37.6 43 32.9 43 27C43 21.1 38.1 16.4 32 16.4Z" fill="url(#inner)"/>
  <path d="M29.9 22H34.1L37.4 44.7H26.6L29.9 22Z" fill="#0F172A" fill-opacity="0.9"/>
  <path d="M32 23.8V29.9" stroke="#F8FAFC" stroke-width="2.2" stroke-linecap="round"/>
  <path d="M32 34.4V40.1" stroke="#F8FAFC" stroke-width="2.2" stroke-linecap="round"/>
  <circle cx="32" cy="27" r="3.1" fill="#F8FAFC"/>
  <defs>
    <linearGradient id="bg" x1="8" y1="6" x2="58" y2="59" gradientUnits="userSpaceOnUse">
      <stop stop-color="#38BDF8"/>
      <stop offset="0.48" stop-color="#2563EB"/>
      <stop offset="1" stop-color="#14B8A6"/>
    </linearGradient>
    <linearGradient id="inner" x1="23" y1="18" x2="42" y2="37" gradientUnits="userSpaceOnUse">
      <stop stop-color="#38BDF8"/>
      <stop offset="1" stop-color="#14B8A6"/>
    </linearGradient>
  </defs>
</svg>